# xmcd
#
# Track frame offsets:
#	150
#	14912
#	29169
#	44115
#	57817
#	74022
#	89095
#	102242
#	119575
#	134577
#	145760
#	157100
#	169915
#	185692
#	200990
#	221562
#	236710
#	253840
#	268862
#	281205
#
# Disc length: 3916 seconds
#
# Revision: 1
# Processed by: cddbd v1.5.2PL0 Copyright (c) Steve Scherf et al.
# Submitted via: audiograbber 1.83.01
#
DISCID=610f4a14
DTITLE=Various Artist - Country Classics From The 90s
DYEAR=1998
DGENRE=Country
TTITLE0=Ronnie Milsap - A Woman In Love
TTITLE1=Suzy Bogguss - Drive South
TTITLE2=Aaron Tippin - That's As Close As I'll Get To Loving You
TTITLE3=Baillie And The Boys - Fool Such As I
TTITLE4=Exile - Nobody's Talkin'
TTITLE5=McBride and The Ride - Sacred Ground
TTITLE6=John Anderson - Straight Tequila Night
TTITLE7=K.T. Oslin - Come Next Monday
TTITLE8=Diamond Rio - Meet Me In The Middle
TTITLE9=Patty Loveless - Chains
TTITLE10=Ricky Van Shelton - I've Cried My Last Tear For You
TTITLE11=Shenandoah - If Bubba Can Dance (I Can Too)
TTITLE12=Doug Stone - A Jukebox With A Country Song
TTITLE13=Holly Dunn - Heart Full Of Love
TTITLE14=Paul Overstreet - Heroes
TTITLE15=Keith Whitley and Earl Thomas Conley - Brotherly Love
TTITLE16=Doug Supernaw - I Don't Call Him Daddy
TTITLE17=Don Williams - Just As Long As I Have You
TTITLE18=Ty England - Should've Asked Her Faster
TTITLE19=Lorrie Morgan - What Part Of No
EXTD=
EXTT0=
EXTT1=
EXTT2=
EXTT3=
EXTT4=
EXTT5=
EXTT6=
EXTT7=
EXTT8=
EXTT9=
EXTT10=
EXTT11=
EXTT12=
EXTT13=
EXTT14=
EXTT15=
EXTT16=
EXTT17=
EXTT18=
EXTT19=
PLAYORDER=
